<svg version="1.1" viewBox="0.0 0.0 16.0 16.0" fill="none" stroke="none" stroke-linecap="square" stroke-miterlimit="10" xmlns:xlink="http://www.w3.org/1999/xlink" xmlns="http://www.w3.org/2000/svg"><clipPath id="p.0"><path d="m0 0l16.0 0l0 16.0l-16.0 0l0 -16.0z" clip-rule="nonzero"/></clipPath><g clip-path="url(#p.0)"><path fill="#000000" fill-opacity="0.0" d="m0 0l16.0 0l0 16.0l-16.0 0z" fill-rule="evenodd"/><path fill="#000000" fill-opacity="0.0" d="m5.0087137 1.2755905l9.715695 0l0 0l0 9.715695l-3.7331228 3.7331228l-9.715695 0l0 0l0 -9.715695z" fill-rule="evenodd"/><path stroke="#c5c5c5" stroke-width="1.0" stroke-linejoin="round" stroke-linecap="butt" d="m5.0087137 1.2755905l9.715695 0l0 0l0 9.715695l-3.7331228 3.7331228l-9.715695 0l0 0l0 -9.715695z" fill-rule="evenodd"/><path fill="#000000" fill-opacity="0.0" d="m-0.15748031 2.3937008l16.31496 0l0 11.212599l-16.31496 0z" fill-rule="evenodd"/><path fill="#c5c5c5" d="m5.2956085 8.6725l-1.5625 0l0 2.6875l-0.875 0l0 -6.625l2.1875 0q1.125 0 1.71875 0.515625q0.609375 0.5 0.609375 1.46875q0 0.625 -0.328125 1.09375q-0.328125 0.453125 -0.9375 0.671875l1.5625 2.828125l0 0.046875l-0.9375 0l-1.4375 -2.6875zm-1.5625 -0.703125l1.34375 0q0.65625 0 1.03125 -0.34375q0.390625 -0.34375 0.390625 -0.90625q0 -0.609375 -0.375 -0.9375q-0.359375 -0.328125 -1.046875 -0.328125l-1.34375 0l0 2.515625zm9.743546 1.28125q-0.109375 1.0625 -0.765625 1.640625q-0.65625 0.5625 -1.734375 0.5625q-1.1875 0 -1.890625 -0.84375q-0.703125 -0.84375 -0.703125 -2.25l0 -0.640625q0 -0.921875 0.328125 -1.625q0.328125 -0.703125 0.921875 -1.078125q0.609375 -0.375 1.421875 -0.375q1.046875 0 1.6875 0.59375q0.640625 0.578125 0.734375 1.625l-0.875 0q-0.109375 -0.796875 -0.5 -1.140625q-0.375 -0.359375 -1.046875 -0.359375q-0.84375 0 -1.328125 0.625q-0.46875 0.609375 -0.46875 1.75l0 0.640625q0 1.078125 0.453125 1.71875q0.453125 0.640625 1.265625 0.640625q0.71875 0 1.109375 -0.328125q0.390625 -0.328125 0.515625 -1.15625l0.875 0z" fill-rule="nonzero"/></g></svg>