<svg version="1.1" viewBox="0.0 0.0 16.0 16.0" fill="none" stroke="none" stroke-linecap="square" stroke-miterlimit="10" xmlns:xlink="http://www.w3.org/1999/xlink" xmlns="http://www.w3.org/2000/svg"><clipPath id="p.0"><path d="m0 0l16.0 0l0 16.0l-16.0 0l0 -16.0z" clip-rule="nonzero"/></clipPath><g clip-path="url(#p.0)"><path fill="#000000" fill-opacity="0.0" d="m0 0l16.0 0l0 16.0l-16.0 0z" fill-rule="evenodd"/><path fill="#000000" fill-opacity="0.0" d="m5.0087137 1.2755905l9.715695 0l0 0l0 9.715695l-3.7331228 3.7331228l-9.715695 0l0 0l0 -9.715695z" fill-rule="evenodd"/><path stroke="#c5c5c5" stroke-width="1.0" stroke-linejoin="round" stroke-linecap="butt" d="m5.0087137 1.2755905l9.715695 0l0 0l0 9.715695l-3.7331228 3.7331228l-9.715695 0l0 0l0 -9.715695z" fill-rule="evenodd"/><path fill="#000000" fill-opacity="0.0" d="m14.727035 2.3937008l-13.448819 0l0 11.212599l13.448819 0z" fill-rule="evenodd"/><path fill="#c5c5c5" d="m9.14727 4.7349997l0 4.5q0 0.9375 -0.59375 1.546875q-0.5781245 0.59375 -1.5781245 0.65625l-0.234375 0.015625q-1.09375 0 -1.75 -0.578125q-0.640625 -0.59375 -0.640625 -1.625l0 -4.515625l0.859375 0l0 4.484375q0 0.71875 0.390625 1.125q0.40625 0.390625 1.140625 0.390625q0.734375 0 1.125 -0.390625q0.40624952 -0.40625 0.40624952 -1.125l0 -4.484375l0.875 0zm2.314331 6.625l-0.875 0l0 -6.625l0.875 0l0 6.625z" fill-rule="nonzero"/></g></svg>